<svg width="136" height="62" viewBox="0 0 136 62" fill="none" xmlns="http://www.w3.org/2000/svg">
<path d="M35.078 43.8904C36.03 52.7922 28.9685 60.8505 19.3057 61.8891C9.64295 62.9277 1.03798 56.5534 0.0859914 47.6515C-0.866 38.7497 6.19548 30.6914 15.8583 29.6528C25.521 28.6142 34.126 34.9885 35.078 43.8904Z" fill="#FFB800"/>
<path d="M35.8801 45.7164C35.8801 54.6002 28.6966 61.802 19.8352 61.802C10.9739 61.802 3.79032 54.6002 3.79032 45.7164C3.79032 36.8326 10.9739 29.6308 19.8352 29.6308C28.6966 29.6308 35.8801 36.8326 35.8801 45.7164Z" fill="#0238D6"/>
<path d="M77.5966 3.89274C71.757 -0.610107 52.5666 0.0315658 52.5666 0.0315658V0.0459262C52.3537 0.0375348 52.1398 0.0332998 51.9249 0.0332998C43.0636 0.0332998 35.88 7.23506 35.88 16.1189C35.88 25.0027 43.0636 32.2045 51.9249 32.2045C52.1398 32.2045 52.3537 32.2002 52.5666 32.1919V32.2027L73.104 30.9159C73.104 30.9159 85.5338 29.7475 91.7161 32.8471C97.8996 35.9474 102.259 44.5319 104.377 49.5839C104.694 50.8725 105.166 52.0998 105.772 53.245C105.814 53.3704 105.836 53.4367 105.836 53.4367L105.857 53.4024C108.577 58.4065 113.87 61.802 119.955 61.802C128.816 61.802 136 54.6002 136 45.7164C136 37.0451 129.156 29.9764 120.588 29.6431L120.597 29.6291C120.597 29.6291 120.547 29.6324 120.45 29.6383C120.286 29.6333 120.121 29.6308 119.955 29.6308C119.279 29.6308 118.613 29.6727 117.959 29.7541C112.461 29.9485 99.8751 30.0329 94.9251 27.0554C91.4746 24.9799 89.2373 20.8517 86.8421 16.4323C84.4051 11.9357 81.8046 7.13749 77.5966 3.89274Z" fill="#0238D6"/>
</svg>
