<svg width="50" height="46" viewBox="0 0 50 46" fill="none" xmlns="http://www.w3.org/2000/svg">
<path d="M46.6266 0.943359L27.8755 14.7974L31.3623 6.63276L46.6266 0.943359Z" fill="#E17726" stroke="#E17726" stroke-linecap="round" stroke-linejoin="round"/>
<path d="M3.37305 0.943359L21.9572 14.9267L18.6374 6.63276L3.37305 0.943359Z" fill="#E27625" stroke="#E27625" stroke-linecap="round" stroke-linejoin="round"/>
<path d="M39.8746 33.0667L34.8855 40.6772L45.5686 43.6142L48.6289 33.2329L39.8746 33.0667Z" fill="#E27625" stroke="#E27625" stroke-linecap="round" stroke-linejoin="round"/>
<path d="M1.38892 33.2329L4.43065 43.6142L15.0953 40.6772L10.1246 33.0667L1.38892 33.2329Z" fill="#E27625" stroke="#E27625" stroke-linecap="round" stroke-linejoin="round"/>
<path d="M14.5203 20.2098L11.5527 24.6801L22.1246 25.1603L21.7722 13.8L14.5203 20.2098Z" fill="#E27625" stroke="#E27625" stroke-linecap="round" stroke-linejoin="round"/>
<path d="M35.4783 20.2096L28.1151 13.6704L27.874 25.1601L38.4459 24.6798L35.4783 20.2096Z" fill="#E27625" stroke="#E27625" stroke-linecap="round" stroke-linejoin="round"/>
<path d="M15.0955 40.6768L21.4942 37.592L15.9858 33.3064L15.0955 40.6768Z" fill="#E27625" stroke="#E27625" stroke-linecap="round" stroke-linejoin="round"/>
<path d="M28.5054 37.592L34.8856 40.6768L34.0139 33.3064L28.5054 37.592Z" fill="#E27625" stroke="#E27625" stroke-linecap="round" stroke-linejoin="round"/>
<path d="M34.8856 40.6769L28.5054 37.592L29.0247 41.7298L28.9691 43.4846L34.8856 40.6769Z" fill="#D5BFB2" stroke="#D5BFB2" stroke-linecap="round" stroke-linejoin="round"/>
<path d="M15.0962 40.6769L21.0313 43.4846L20.9942 41.7298L21.495 37.592L15.0962 40.6769Z" fill="#D5BFB2" stroke="#D5BFB2" stroke-linecap="round" stroke-linejoin="round"/>
<path d="M21.1419 30.5728L15.8374 29.0211L19.584 27.3032L21.1419 30.5728Z" fill="#233447" stroke="#233447" stroke-linecap="round" stroke-linejoin="round"/>
<path d="M28.8577 30.5728L30.4156 27.3032L34.1806 29.0211L28.8577 30.5728Z" fill="#233447" stroke="#233447" stroke-linecap="round" stroke-linejoin="round"/>
<path d="M15.0951 40.6769L16.0225 33.0664L10.1245 33.2326L15.0951 40.6769Z" fill="#CC6228" stroke="#CC6228" stroke-linecap="round" stroke-linejoin="round"/>
<path d="M33.9758 33.0664L34.8846 40.6769L39.8738 33.2326L33.9758 33.0664Z" fill="#CC6228" stroke="#CC6228" stroke-linecap="round" stroke-linejoin="round"/>
<path d="M38.4459 24.6799L27.874 25.1602L28.857 30.5726L30.415 27.303L34.1801 29.0209L38.4459 24.6799Z" fill="#CC6228" stroke="#CC6228" stroke-linecap="round" stroke-linejoin="round"/>
<path d="M15.8371 29.0209L19.5837 27.303L21.1416 30.5726L22.1246 25.1602L11.5527 24.6799L15.8371 29.0209Z" fill="#CC6228" stroke="#CC6228" stroke-linecap="round" stroke-linejoin="round"/>
<path d="M11.5535 24.6802L15.9862 33.3066L15.8378 29.0211L11.5535 24.6802Z" fill="#E27525" stroke="#E27525" stroke-linecap="round" stroke-linejoin="round"/>
<path d="M34.1798 29.0208L34.0129 33.3064L38.4457 24.6799L34.1798 29.0208Z" fill="#E27525" stroke="#E27525" stroke-linecap="round" stroke-linejoin="round"/>
<path d="M22.1246 25.1602L21.1416 30.5725L22.3842 36.9638L22.6625 28.5405L22.1246 25.1602Z" fill="#E27525" stroke="#E27525" stroke-linecap="round" stroke-linejoin="round"/>
<path d="M27.8748 25.1602L27.3555 28.5221L27.6151 36.9638L28.8578 30.5725L27.8748 25.1602Z" fill="#E27525" stroke="#E27525" stroke-linecap="round" stroke-linejoin="round"/>
<path d="M28.8584 30.5727L27.6157 36.964L28.506 37.592L34.0145 33.3066L34.1814 29.021L28.8584 30.5727Z" fill="#F5841F" stroke="#F5841F" stroke-linecap="round" stroke-linejoin="round"/>
<path d="M15.8374 29.021L15.9858 33.3066L21.4943 37.592L22.3845 36.964L21.1419 30.5727L15.8374 29.021Z" fill="#F5841F" stroke="#F5841F" stroke-linecap="round" stroke-linejoin="round"/>
<path d="M28.9695 43.4848L29.0251 41.7299L28.5429 41.3235H21.4578L20.9942 41.7299L21.0313 43.4848L15.0962 40.677L17.1735 42.3764L21.3837 45.2765H28.5985L32.8272 42.3764L34.886 40.677L28.9695 43.4848Z" fill="#C0AC9D" stroke="#C0AC9D" stroke-linecap="round" stroke-linejoin="round"/>
<path d="M28.5053 37.5919L27.6149 36.9639H22.3847L21.4944 37.5919L20.9937 41.7296L21.4573 41.3233H28.5423L29.0246 41.7296L28.5053 37.5919Z" fill="#161616" stroke="#161616" stroke-linecap="round" stroke-linejoin="round"/>
<path d="M47.4234 15.7026L49 8.05513L46.626 0.943359L28.5054 14.3356L35.4791 20.2097L45.3276 23.0729L47.4977 20.5422L46.5518 19.8587L48.0541 18.4918L46.9041 17.6052L48.4065 16.4599L47.4234 15.7026Z" fill="#763E1A" stroke="#763E1A" stroke-linecap="round" stroke-linejoin="round"/>
<path d="M1 8.05513L2.59505 15.7026L1.57496 16.4599L3.09583 17.6052L1.94591 18.4918L3.44822 19.8587L2.50232 20.5422L4.67234 23.0729L14.5208 20.2097L21.4946 14.3356L3.37403 0.943359L1 8.05513Z" fill="#763E1A" stroke="#763E1A" stroke-linecap="round" stroke-linejoin="round"/>
<path d="M45.3267 23.0732L35.4781 20.21L38.4457 24.6802L34.0129 33.3067L39.8738 33.2328H48.628L45.3267 23.0732Z" fill="#F5841F" stroke="#F5841F" stroke-linecap="round" stroke-linejoin="round"/>
<path d="M14.521 20.21L4.67249 23.0732L1.38965 33.2328H10.1253L15.9863 33.3067L11.5535 24.6802L14.521 20.21Z" fill="#F5841F" stroke="#F5841F" stroke-linecap="round" stroke-linejoin="round"/>
<path d="M27.8747 25.1603L28.5053 14.3356L31.3615 6.63281H18.6382L21.4944 14.3356L22.125 25.1603L22.3661 28.5592L22.3847 36.9639H27.615L27.6335 28.5592L27.8747 25.1603Z" fill="#F5841F" stroke="#F5841F" stroke-linecap="round" stroke-linejoin="round"/>
</svg>
