<svg width="15" height="15" viewBox="0 0 15 15" fill="none" xmlns="http://www.w3.org/2000/svg">
<path d="M12 8.27637H11C10.8674 8.27637 10.7402 8.32905 10.6464 8.42281C10.5527 8.51658 10.5 8.64376 10.5 8.77637C10.5 8.90898 10.5527 9.03615 10.6464 9.12992C10.7402 9.22369 10.8674 9.27637 11 9.27637H12C12.1326 9.27637 12.2598 9.22369 12.3536 9.12992C12.4473 9.03615 12.5 8.90898 12.5 8.77637C12.5 8.64376 12.4473 8.51658 12.3536 8.42281C12.2598 8.32905 12.1326 8.27637 12 8.27637ZM2 0.276367C1.60218 0.276367 1.22064 0.434402 0.93934 0.715707C0.658035 0.997012 0.5 1.37854 0.5 1.77637V11.7764C0.5 12.4394 0.763392 13.0753 1.23223 13.5441C1.70107 14.013 2.33696 14.2764 3 14.2764H13C13.3978 14.2764 13.7794 14.1183 14.0607 13.837C14.342 13.5557 14.5 13.1742 14.5 12.7764V3.77637C14.5002 3.46604 14.4041 3.1633 14.225 2.90988C14.0459 2.65645 13.7926 2.46481 13.5 2.36137V1.77637C13.5 1.37854 13.342 0.997012 13.0607 0.715707C12.7794 0.434402 12.3978 0.276367 12 0.276367H2ZM1.5 11.7764V3.19137C1.656 3.24637 1.825 3.27637 2 3.27637H13C13.1326 3.27637 13.2598 3.32905 13.3536 3.42281C13.4473 3.51658 13.5 3.64376 13.5 3.77637V12.7764C13.5 12.909 13.4473 13.0362 13.3536 13.1299C13.2598 13.2237 13.1326 13.2764 13 13.2764H3C2.60218 13.2764 2.22064 13.1183 1.93934 12.837C1.65804 12.5557 1.5 12.1742 1.5 11.7764ZM2 1.27637H12C12.1326 1.27637 12.2598 1.32905 12.3536 1.42281C12.4473 1.51658 12.5 1.64376 12.5 1.77637V2.27637H2C1.86739 2.27637 1.74021 2.22369 1.64645 2.12992C1.55268 2.03615 1.5 1.90898 1.5 1.77637C1.5 1.64376 1.55268 1.51658 1.64645 1.42281C1.74021 1.32905 1.86739 1.27637 2 1.27637Z" fill="#FCFCFC"/>
</svg>
