<svg width="143" height="66" viewBox="0 0 143 66" fill="none" xmlns="http://www.w3.org/2000/svg">
<path d="M37.7378 47.9428C37.7378 57.2592 30.1853 64.8117 20.8688 64.8117C11.5524 64.8117 3.99988 57.2592 3.99988 47.9428C3.99988 38.6263 11.5524 31.0738 20.8688 31.0738C30.1853 31.0738 37.7378 38.6263 37.7378 47.9428Z" fill="black"/>
<path d="M81.5968 4.08231C75.4573 -0.63982 55.2813 0.033103 55.2813 0.033103V0.0481628C55.0575 0.0393628 54.8326 0.0349215 54.6067 0.0349215C45.2902 0.0349215 37.7377 7.58741 37.7377 16.9039C37.7377 26.2204 45.2902 33.7728 54.6067 33.7728C54.8326 33.7728 55.0575 33.7684 55.2813 33.7596V33.771L76.8735 32.4215C76.8735 32.4215 89.9417 31.1962 96.4415 34.4468C102.943 37.698 107.526 46.7006 109.753 51.9987C110.086 53.35 110.583 54.6371 111.22 55.8381C111.264 55.9695 111.286 56.0391 111.286 56.0391L111.309 56.0031C114.168 61.2509 119.734 64.8117 126.131 64.8117C135.447 64.8117 143 57.2592 143 47.9428C143 38.8492 135.804 31.4363 126.797 31.0867L126.806 31.072C126.806 31.072 126.753 31.0755 126.652 31.0817C126.479 31.0765 126.305 31.0738 126.131 31.0738C125.42 31.0738 124.72 31.1178 124.032 31.2031C118.251 31.4069 105.02 31.4955 99.8153 28.373C96.1876 26.1964 93.8354 21.8672 91.3172 17.2325C88.755 12.5169 86.021 7.48509 81.5968 4.08231Z" fill="black"/>
</svg>
