<svg width="244" height="246" viewBox="0 0 244 246" fill="none" xmlns="http://www.w3.org/2000/svg">
<g filter="url(#filter0_d_85_189)">
<path d="M22 56C22 25.0721 47.0721 0 78 0H166C196.928 0 222 25.0721 222 56V144C222 174.928 196.928 200 166 200H78C47.0721 200 22 174.928 22 144V56Z" fill="white"/>
</g>
<path d="M84.2365 113.554C85.3285 123.604 77.2286 132.702 66.1448 133.875C55.061 135.047 45.1906 127.851 44.0986 117.8C43.0066 107.75 51.1066 98.6516 62.1903 97.4789C73.2741 96.3063 83.1445 103.503 84.2365 113.554Z" fill="#FFB800"/>
<path d="M85.1566 115.615C85.1566 125.645 76.9167 133.776 66.7522 133.776C56.5877 133.776 48.3477 125.645 48.3477 115.615C48.3477 105.585 56.5877 97.4541 66.7522 97.4541C76.9167 97.4541 85.1566 105.585 85.1566 115.615Z" fill="#0238D6"/>
<path d="M133.008 68.395C126.31 63.3112 104.297 64.0356 104.297 64.0356V64.0519C104.053 64.0424 103.807 64.0376 103.561 64.0376C93.3965 64.0376 85.1565 72.1686 85.1565 82.1987C85.1565 92.2289 93.3965 100.36 103.561 100.36C103.807 100.36 104.053 100.355 104.297 100.346V100.358L127.855 98.905C127.855 98.905 142.112 97.5859 149.204 101.085C156.297 104.586 161.298 114.278 163.727 119.982C164.09 121.437 164.632 122.822 165.327 124.115C165.375 124.257 165.4 124.332 165.4 124.332L165.424 124.293C168.544 129.943 174.616 133.776 181.596 133.776C191.76 133.776 200 125.645 200 115.615C200 105.825 192.15 97.8443 182.322 97.468L182.332 97.4522C182.332 97.4522 182.274 97.456 182.164 97.4626C181.975 97.457 181.786 97.4541 181.596 97.4541C180.82 97.4541 180.056 97.5014 179.306 97.5933C172.999 97.8128 158.563 97.9081 152.885 94.5464C148.927 92.2031 146.36 87.5423 143.613 82.5525C140.818 77.4758 137.835 72.0585 133.008 68.395Z" fill="#0238D6"/>
<defs>
<filter id="filter0_d_85_189" x="0" y="0" width="244" height="246" filterUnits="userSpaceOnUse" color-interpolation-filters="sRGB">
<feFlood flood-opacity="0" result="BackgroundImageFix"/>
<feColorMatrix in="SourceAlpha" type="matrix" values="0 0 0 0 0 0 0 0 0 0 0 0 0 0 0 0 0 0 127 0" result="hardAlpha"/>
<feOffset dy="24"/>
<feGaussianBlur stdDeviation="11"/>
<feComposite in2="hardAlpha" operator="out"/>
<feColorMatrix type="matrix" values="0 0 0 0 0.0686458 0 0 0 0 0.0572916 0 0 0 0 0.625 0 0 0 0.3 0"/>
<feBlend mode="normal" in2="BackgroundImageFix" result="effect1_dropShadow_85_189"/>
<feBlend mode="normal" in="SourceGraphic" in2="effect1_dropShadow_85_189" result="shape"/>
</filter>
</defs>
</svg>
